<?xml version="1.0" encoding="iso-8859-1"?>
<!-- Generator: Adobe Illustrator 19.0.0, SVG Export Plug-In . SVG Version: 6.00 Build 0)  -->
<svg version="1.1" id="Layer_1" xmlns="http://www.w3.org/2000/svg" xmlns:xlink="http://www.w3.org/1999/xlink" x="0px" y="0px"
	 viewBox="0 0 512 512" style="enable-background:new 0 0 512 512;" xml:space="preserve">
<g>
	<path style="fill:#E2901A;" d="M104.125,512c-4.264,0-7.719-3.456-7.719-7.719v-38.29c0-4.263,3.455-7.719,7.719-7.719
		c4.264,0,7.719,3.456,7.719,7.719v38.29C111.844,508.545,108.388,512,104.125,512z"/>
	<path style="fill:#E2901A;" d="M154.195,512c-4.264,0-7.719-3.456-7.719-7.719v-38.29c0-4.263,3.455-7.719,7.719-7.719
		s7.719,3.456,7.719,7.719v38.29C161.914,508.545,158.459,512,154.195,512z"/>
	<path style="fill:#E2901A;" d="M204.265,512c-4.264,0-7.719-3.456-7.719-7.719v-38.29c0-4.263,3.455-7.719,7.719-7.719
		s7.719,3.456,7.719,7.719v38.29C211.984,508.545,208.529,512,204.265,512z"/>
	<path style="fill:#E2901A;" d="M254.337,512c-4.264,0-7.719-3.456-7.719-7.719v-38.29c0-4.263,3.455-7.719,7.719-7.719
		c4.264,0,7.719,3.456,7.719,7.719v38.29C262.056,508.545,258.6,512,254.337,512z"/>
	<path style="fill:#E2901A;" d="M304.407,512c-4.264,0-7.719-3.456-7.719-7.719v-38.29c0-4.263,3.455-7.719,7.719-7.719
		c4.264,0,7.719,3.456,7.719,7.719v38.29C312.126,508.545,308.671,512,304.407,512z"/>
	<path style="fill:#E2901A;" d="M354.477,512c-4.264,0-7.719-3.456-7.719-7.719v-38.29c0-4.263,3.455-7.719,7.719-7.719
		c4.264,0,7.719,3.456,7.719,7.719v38.29C362.196,508.545,358.741,512,354.477,512z"/>
	<path style="fill:#E2901A;" d="M404.548,512c-4.264,0-7.719-3.456-7.719-7.719v-38.29c0-4.263,3.455-7.719,7.719-7.719
		c4.264,0,7.719,3.456,7.719,7.719v38.29C412.267,508.545,408.811,512,404.548,512z"/>
</g>
<path style="fill:#FFD41D;" d="M461.307,465.996H47.375c-19.471,0-34.569-17.176-31.955-36.473
	c7.914-58.229,24.411-117.425,49.45-175.562c4.394-10.23,9.056-20.418,13.996-30.566c18.988-39.118,41.896-77.587,68.685-114.791
	v-0.01c2.418-3.345,4.858-6.659,7.327-9.983c2.542-3.417,5.105-6.813,7.719-10.199c11.732-15.293,24.154-30.339,37.255-45.097
	c5.002-5.66,10.116-11.269,15.324-16.837c5.331-5.691,10.765-11.341,16.302-16.94c12.566-12.72,33.159-12.72,45.715,0
	c69.776,70.579,123.209,148.948,160.073,229.664l31.986,83.289c11.176,35.732,19.183,71.567,24,107.031
	C495.876,448.82,480.789,465.996,461.307,465.996z"/>
<g>
	<path style="fill:#EFC71D;" d="M256.452,473.71c-4.264,0-7.719-3.456-7.719-7.719c0-4.263,3.455-7.719,7.719-7.719
		c26.063,0,47.268-21.204,47.268-47.268v-90.314c0-4.263,3.455-7.719,7.719-7.719c4.264,0,7.719,3.456,7.719,7.719v90.315
		C319.157,445.581,291.027,473.71,256.452,473.71z"/>
	<path style="fill:#EFC71D;" d="M365.166,473.71H38.637c-4.264,0-7.719-3.456-7.719-7.719c0-4.263,3.455-7.719,7.719-7.719h326.529
		c26.063,0,47.268-21.204,47.268-47.268v-85.168c0-4.263,3.455-7.719,7.719-7.719c4.264,0,7.719,3.456,7.719,7.719v85.169
		C427.87,445.581,399.741,473.71,365.166,473.71z"/>
	<circle style="fill:#EFC71D;" cx="311.439" cy="276.078" r="44.613"/>
	<circle style="fill:#EFC71D;" cx="420.148" cy="281.224" r="44.613"/>
	<path style="fill:#EFC71D;" d="M254.337,0c-4.096,0-8.192,3.18-11.3,9.54c-13.935,28.538-26.562,58.342-37.842,89.072
		c-38.377,104.427-61.419,219.424-68.901,330.911c-1.297,19.296,6.165,36.463,15.787,36.463H47.376
		c-19.482,0-34.579-17.166-31.965-36.463C30.56,318.036,77.201,203.04,154.87,98.613c22.837-30.73,48.39-60.534,76.599-89.072
		C237.758,3.181,246.042,0,254.337,0z"/>
</g>
<g>
	<path style="fill:#FFA91F;" d="M288.573,473.71c-4.264,0-7.719-3.456-7.719-7.719c0-4.263,3.455-7.719,7.719-7.719
		c26.063,0,47.268-21.204,47.268-47.268v-90.314c0-4.263,3.455-7.719,7.719-7.719c4.264,0,7.719,3.456,7.719,7.719v90.315
		C351.277,445.581,323.148,473.71,288.573,473.71z"/>
	<path style="fill:#FFA91F;" d="M397.286,473.71H70.758c-4.264,0-7.719-3.456-7.719-7.719c0-4.263,3.455-7.719,7.719-7.719h326.529
		c26.063,0,47.268-21.204,47.268-47.268v-85.168c0-4.263,3.455-7.719,7.719-7.719c4.264,0,7.719,3.456,7.719,7.719v85.169
		C459.991,445.581,431.861,473.71,397.286,473.71z"/>
</g>
<g>
	<path style="fill:#EFC71D;" d="M200.852,389.088c-1.328,2.779-4.096,4.415-6.978,4.415c-1.111,0-2.244-0.247-3.304-0.751
		c-36.586-17.382-65.824-37.842-86.911-60.802c-21.643-23.567-34.651-49.739-38.788-77.988c4.394-10.23,9.056-20.418,13.996-30.566
		l0.103,15.962c1.297,29.866,13.43,57.509,36.061,82.146c19.729,21.499,47.382,40.775,82.157,57.303
		C201.037,380.639,202.683,385.239,200.852,389.088z"/>
	<path style="fill:#EFC71D;" d="M312.133,432.323c-0.527,0-1.059-0.054-1.595-0.167c-31.252-6.566-62.426-15.752-90.154-26.565
		c-3.97-1.549-5.935-6.024-4.386-9.995c1.548-3.971,6.025-5.936,9.996-4.386c26.95,10.511,57.281,19.446,87.717,25.84
		c4.172,0.877,6.843,4.969,5.967,9.141C318.915,429.827,315.707,432.323,312.133,432.323z"/>
	<path style="fill:#EFC71D;" d="M172.262,162.008c-1.122,0.566-2.316,0.834-3.479,0.834c-2.82,0-5.537-1.554-6.895-4.24
		c-8.182-16.158-12.988-32.943-14.336-49.996v-0.01c2.418-3.345,4.858-6.659,7.327-9.983c2.542-3.417,5.105-6.813,7.719-10.199
		v10.199c0,18.051,4.394,35.886,13.06,53.021C177.583,155.432,176.06,160.083,172.262,162.008z"/>
	<path style="fill:#EFC71D;" d="M277.645,259.436c-1.098,0-2.213-0.236-3.274-0.733c-22.272-10.449-64.137-33.682-94.305-71.876
		c-2.642-3.345-2.073-8.199,1.273-10.841c3.344-2.642,8.198-2.073,10.841,1.273c28.201,35.706,67.707,57.598,88.746,67.469
		c3.859,1.81,5.519,6.407,3.709,10.266C283.325,257.793,280.546,259.436,277.645,259.436z"/>
	<path style="fill:#EFC71D;" d="M371.967,156.131c-0.278,4.075-3.664,7.194-7.688,7.194c-0.175,0-0.36,0-0.535-0.021
		c-32.809-2.223-73.09-19.235-107.731-45.488c-31.903-24.185-52.28-51.416-56.16-74.5c5.002-5.66,10.116-11.269,15.324-16.837
		l-0.566,9.221c0.144,19.461,19.554,46.178,50.726,69.807c31.862,24.154,69.971,40.394,99.456,42.401
		C369.045,148.197,372.255,151.881,371.967,156.131z"/>
</g>
<g>
	<circle style="fill:#F2F2F2;" cx="343.559" cy="276.078" r="44.613"/>
	<circle style="fill:#F2F2F2;" cx="452.267" cy="281.224" r="44.613"/>
</g>
<g>
	<path style="fill:#4D4D4D;" d="M388.17,276.078c0,15.736-8.141,29.557-20.449,37.512h-0.01
		c-12.298-7.945-20.449-21.777-20.449-37.512c0-15.736,8.151-29.567,20.449-37.512h0.01
		C380.03,246.521,388.17,260.344,388.17,276.078z"/>
	<path style="fill:#4D4D4D;" d="M496.884,281.226c0,15.736-8.141,29.557-20.449,37.512h-0.01
		c-12.298-7.945-20.449-21.777-20.449-37.512c0-15.736,8.151-29.567,20.449-37.512h0.01
		C488.743,251.669,496.884,265.49,496.884,281.226z"/>
</g>
<g>
</g>
<g>
</g>
<g>
</g>
<g>
</g>
<g>
</g>
<g>
</g>
<g>
</g>
<g>
</g>
<g>
</g>
<g>
</g>
<g>
</g>
<g>
</g>
<g>
</g>
<g>
</g>
<g>
</g>
</svg>
